<svg width="512" height="320" viewBox="0 0 512 320" xmlns="http://www.w3.org/2000/svg" role="img" aria-label="Chennai Institute of Technology logo">
  <rect width="512" height="320" rx="18" fill="#fff7c2"/>
  <rect x="16" y="16" width="480" height="288" rx="16" fill="#fff200"/>
  <g fill="#0a1f5a">
    <path d="M264 64c22 0 40 18 40 40 0 10-4 19-10 26l-22 22c-7 7-16 11-26 11-22 0-40-18-40-40 0-10 4-19 10-26l22-22c7-7 16-11 26-11z"/>
    <path d="M348 124c22 0 40 18 40 40 0 10-4 19-10 26l-22 22c-7 7-16 11-26 11-22 0-40-18-40-40 0-10 4-19 10-26l22-22c7-7 16-11 26-11z"/>
    <path d="M314 210c22 0 40 18 40 40 0 10-4 19-10 26l-22 22c-7 7-16 11-26 11-22 0-40-18-40-40 0-10 4-19 10-26l22-22c7-7 16-11 26-11z"/>
  </g>
  <g fill="#111">
    <text x="34" y="128" font-family="Arial, Helvetica, sans-serif" font-size="56" font-weight="700">CHENNAI</text>
    <text x="34" y="174" font-family="Arial, Helvetica, sans-serif" font-size="44" font-weight="700">INSTITUTE OF</text>
    <text x="34" y="220" font-family="Arial, Helvetica, sans-serif" font-size="44" font-weight="700">TECHNOLOGY</text>
  </g>
  <rect x="56" y="236" width="300" height="42" rx="8" fill="#1f6b5b"/>
  <text x="78" y="266" font-family="Georgia, 'Times New Roman', serif" font-size="26" font-style="italic" fill="#fff8c8">Transforming Lives</text>
</svg>
